# xmcd
#
# Track frame offsets:
#	150
#	25457
#	49215
#	70765
#	93347
#	110160
#	123892
#	139017
#	152442
#	171787
#	189945
#	216559
#	236140
#	252660
#	270762
#	288980
#
# Disc length: 4110 seconds
#
# Revision: 0
# Processed by: cddbd v1.5.2PL0 Copyright (c) Steve Scherf et al.
# Submitted via: EasyCDDAExtractor 11.0.2.1
#
DISCID=e8100c10
DTITLE=Various Artist - YU Balade 5
DYEAR=1900
DGENRE=Ballad
TTITLE0=AZRA - Kao Ti I Ja
TTITLE1=PRLJAVO KAZALIŠTE - Na Badnje Veče
TTITLE2=PARNI VALJAK - Stranica Dnevnika
TTITLE3=BIJELO DUGME - Ako Možeš Zaboravi
TTITLE4=CRVENA JABUKA - Sa Tvojih Usana
TTITLE5=HARI MATA HARI - Na Zaboravi
TTITLE6=MAGAZIN - Uvenuće Ruzmarin
TTITLE7=ZDRAVKO ČOLIĆ - Zbogom Ivana
TTITLE8=HARI MATA HARI - Ako Padate Snijegovi Bijeli
TTITLE9=PARNI VALJAK - Samo Sjećanja
TTITLE10=RIBLJA ČORBA - Ostani Đubre Do Kraja
TTITLE11=PRLJAVO KAZALIŠTE - Iz Nekih Starih Razloga
TTITLE12=JOSIPA LISAC - Dok Razmišljam O Nama
TTITLE13=DORIS DRAGOVIĆ - Tužna Je Noć
TTITLE14=SREBRNA KRILA - Zakuni Se Ljubavi
TTITLE15=MAGAZIN - Idi
EXTD=
EXTT0=
EXTT1=
EXTT2=
EXTT3=
EXTT4=
EXTT5=
EXTT6=
EXTT7=
EXTT8=
EXTT9=
EXTT10=
EXTT11=
EXTT12=
EXTT13=
EXTT14=
EXTT15=
PLAYORDER=
